<?xml version="1.0" standalone="no"?><svg xmlns="http://www.w3.org/2000/svg" viewBox="0 0 1440 320"><path fill="#f3f4f5" fill-opacity="1" d="M0,160L14.1,154.7C28.2,149,56,139,85,117.3C112.9,96,141,64,169,80C197.6,96,226,160,254,197.3C282.4,235,311,245,339,256C367.1,267,395,277,424,261.3C451.8,245,480,203,508,170.7C536.5,139,565,117,593,122.7C621.2,128,649,160,678,170.7C705.9,181,734,171,762,181.3C790.6,192,819,224,847,229.3C875.3,235,904,213,932,197.3C960,181,988,171,1016,160C1044.7,149,1073,139,1101,122.7C1129.4,107,1158,85,1186,96C1214.1,107,1242,149,1271,138.7C1298.8,128,1327,64,1355,74.7C1383.5,85,1412,171,1426,213.3L1440,256L1440,320L1425.9,320C1411.8,320,1384,320,1355,320C1327.1,320,1299,320,1271,320C1242.4,320,1214,320,1186,320C1157.6,320,1129,320,1101,320C1072.9,320,1045,320,1016,320C988.2,320,960,320,932,320C903.5,320,875,320,847,320C818.8,320,791,320,762,320C734.1,320,706,320,678,320C649.4,320,621,320,593,320C564.7,320,536,320,508,320C480,320,452,320,424,320C395.3,320,367,320,339,320C310.6,320,282,320,254,320C225.9,320,198,320,169,320C141.2,320,113,320,85,320C56.5,320,28,320,14,320L0,320Z"></path></svg>